<?xml version="1.0" encoding="utf-8"?>
<svg version="1.1" xmlns:xlink="http://www.w3.org/1999/xlink" width="90px" height="80px" xmlns="http://www.w3.org/2000/svg">
  <defs>
    <filter x="420px" y="589px" width="90px" height="80px" filterUnits="userSpaceOnUse" id="filter237">
      <feOffset dx="0" dy="1" in="SourceAlpha" result="shadowOffsetInner" />
      <feGaussianBlur stdDeviation="5" in="shadowOffsetInner" result="shadowGaussian" />
      <feComposite in2="shadowGaussian" operator="atop" in="SourceAlpha" result="shadowComposite" />
      <feColorMatrix type="matrix" values="0 0 0 0 0.788235294117647  0 0 0 0 0.788235294117647  0 0 0 0 0.788235294117647  0 0 0 0.349019607843137 0  " in="shadowComposite" />
    </filter>
    <g id="widget238">
      <path d="M 430.5 603  A 4.5 4.5 0 0 1 435 598.5 L 495 598.5  A 4.5 4.5 0 0 1 499.5 603 L 499.5 653  A 4.5 4.5 0 0 1 495 657.5 L 435 657.5  A 4.5 4.5 0 0 1 430.5 653 L 430.5 603  Z " fill-rule="nonzero" fill="#ffffff" stroke="none" fill-opacity="0.956862745098039" />
      <path d="M 430.5 603  A 4.5 4.5 0 0 1 435 598.5 L 495 598.5  A 4.5 4.5 0 0 1 499.5 603 L 499.5 653  A 4.5 4.5 0 0 1 495 657.5 L 435 657.5  A 4.5 4.5 0 0 1 430.5 653 L 430.5 603  Z " stroke-width="1" stroke="#ff9900" fill="none" />
    </g>
  </defs>
  <g transform="matrix(1 0 0 1 -420 -589 )">
    <use xlink:href="#widget238" filter="url(#filter237)" />
    <use xlink:href="#widget238" />
  </g>
</svg>