<?xml version="1.0" encoding="utf-8"?>
<svg version="1.1" xmlns:xlink="http://www.w3.org/1999/xlink" width="490px" height="80px" xmlns="http://www.w3.org/2000/svg">
  <defs>
    <filter x="20px" y="1491px" width="490px" height="80px" filterUnits="userSpaceOnUse" id="filter239">
      <feOffset dx="0" dy="1" in="SourceAlpha" result="shadowOffsetInner" />
      <feGaussianBlur stdDeviation="5" in="shadowOffsetInner" result="shadowGaussian" />
      <feComposite in2="shadowGaussian" operator="atop" in="SourceAlpha" result="shadowComposite" />
      <feColorMatrix type="matrix" values="0 0 0 0 0.788235294117647  0 0 0 0 0.788235294117647  0 0 0 0 0.788235294117647  0 0 0 0.349019607843137 0  " in="shadowComposite" />
    </filter>
    <g id="widget240">
      <path d="M 30.5 1505  A 4.5 4.5 0 0 1 35 1500.5 L 495 1500.5  A 4.5 4.5 0 0 1 499.5 1505 L 499.5 1555  A 4.5 4.5 0 0 1 495 1559.5 L 35 1559.5  A 4.5 4.5 0 0 1 30.5 1555 L 30.5 1505  Z " fill-rule="nonzero" fill="#ffffff" stroke="none" fill-opacity="0.956862745098039" />
      <path d="M 30.5 1505  A 4.5 4.5 0 0 1 35 1500.5 L 495 1500.5  A 4.5 4.5 0 0 1 499.5 1505 L 499.5 1555  A 4.5 4.5 0 0 1 495 1559.5 L 35 1559.5  A 4.5 4.5 0 0 1 30.5 1555 L 30.5 1505  Z " stroke-width="1" stroke="#ff9900" fill="none" />
    </g>
  </defs>
  <g transform="matrix(1 0 0 1 -20 -1491 )">
    <use xlink:href="#widget240" filter="url(#filter239)" />
    <use xlink:href="#widget240" />
  </g>
</svg>