<?xml version="1.0" encoding="utf-8"?>
<svg version="1.1" xmlns:xlink="http://www.w3.org/1999/xlink" width="490px" height="80px" xmlns="http://www.w3.org/2000/svg">
  <defs>
    <filter x="1120px" y="871px" width="490px" height="80px" filterUnits="userSpaceOnUse" id="filter241">
      <feOffset dx="0" dy="1" in="SourceAlpha" result="shadowOffsetInner" />
      <feGaussianBlur stdDeviation="5" in="shadowOffsetInner" result="shadowGaussian" />
      <feComposite in2="shadowGaussian" operator="atop" in="SourceAlpha" result="shadowComposite" />
      <feColorMatrix type="matrix" values="0 0 0 0 0.788235294117647  0 0 0 0 0.788235294117647  0 0 0 0 0.788235294117647  0 0 0 0.349019607843137 0  " in="shadowComposite" />
    </filter>
    <g id="widget242">
      <path d="M 1130.5 885  A 4.5 4.5 0 0 1 1135 880.5 L 1595 880.5  A 4.5 4.5 0 0 1 1599.5 885 L 1599.5 935  A 4.5 4.5 0 0 1 1595 939.5 L 1135 939.5  A 4.5 4.5 0 0 1 1130.5 935 L 1130.5 885  Z " fill-rule="nonzero" fill="#ffffff" stroke="none" fill-opacity="0.956862745098039" />
      <path d="M 1130.5 885  A 4.5 4.5 0 0 1 1135 880.5 L 1595 880.5  A 4.5 4.5 0 0 1 1599.5 885 L 1599.5 935  A 4.5 4.5 0 0 1 1595 939.5 L 1135 939.5  A 4.5 4.5 0 0 1 1130.5 935 L 1130.5 885  Z " stroke-width="1" stroke="#e4e4e4" fill="none" />
    </g>
  </defs>
  <g transform="matrix(1 0 0 1 -1120 -871 )">
    <use xlink:href="#widget242" filter="url(#filter241)" />
    <use xlink:href="#widget242" />
  </g>
</svg>