<?xml version="1.0" encoding="utf-8"?>
<svg version="1.1" xmlns:xlink="http://www.w3.org/1999/xlink" width="35px" height="35px" xmlns="http://www.w3.org/2000/svg">
  <g transform="matrix(1 0 0 1 -436 -299 )">
    <path d="M 453.5 299.5  C 463.02 299.5  470.5 306.98  470.5 316.5  C 470.5 326.02  463.02 333.5  453.5 333.5  C 443.98 333.5  436.5 326.02  436.5 316.5  C 436.5 306.98  443.98 299.5  453.5 299.5  Z " fill-rule="nonzero" fill="#ffffff" stroke="none" />
    <path d="M 453.5 299.5  C 463.02 299.5  470.5 306.98  470.5 316.5  C 470.5 326.02  463.02 333.5  453.5 333.5  C 443.98 333.5  436.5 326.02  436.5 316.5  C 436.5 306.98  443.98 299.5  453.5 299.5  Z " stroke-width="1" stroke-dasharray="9,4,2,4,2,4" stroke="#797979" fill="none" stroke-dashoffset="0.5" />
  </g>
</svg>