<?xml version="1.0" encoding="utf-8"?>
<svg version="1.1" xmlns:xlink="http://www.w3.org/1999/xlink" width="299px" height="80px" xmlns="http://www.w3.org/2000/svg">
  <defs>
    <filter x="116px" y="818px" width="299px" height="80px" filterUnits="userSpaceOnUse" id="filter245">
      <feOffset dx="0" dy="1" in="SourceAlpha" result="shadowOffsetInner" />
      <feGaussianBlur stdDeviation="5" in="shadowOffsetInner" result="shadowGaussian" />
      <feComposite in2="shadowGaussian" operator="atop" in="SourceAlpha" result="shadowComposite" />
      <feColorMatrix type="matrix" values="0 0 0 0 0.788235294117647  0 0 0 0 0.788235294117647  0 0 0 0 0.788235294117647  0 0 0 0.349019607843137 0  " in="shadowComposite" />
    </filter>
    <g id="widget246">
      <path d="M 126.5 832  A 4.5 4.5 0 0 1 131 827.5 L 400 827.5  A 4.5 4.5 0 0 1 404.5 832 L 404.5 882  A 4.5 4.5 0 0 1 400 886.5 L 131 886.5  A 4.5 4.5 0 0 1 126.5 882 L 126.5 832  Z " fill-rule="nonzero" fill="#ffffff" stroke="none" fill-opacity="0" />
      <path d="M 126.5 832  A 4.5 4.5 0 0 1 131 827.5 L 400 827.5  A 4.5 4.5 0 0 1 404.5 832 L 404.5 882  A 4.5 4.5 0 0 1 400 886.5 L 131 886.5  A 4.5 4.5 0 0 1 126.5 882 L 126.5 832  Z " stroke-width="1" stroke="#ff9900" fill="none" />
    </g>
  </defs>
  <g transform="matrix(1 0 0 1 -116 -818 )">
    <use xlink:href="#widget246" filter="url(#filter245)" />
    <use xlink:href="#widget246" />
  </g>
</svg>